<svg xmlns="http://www.w3.org/2000/svg" version="1.1" width="96" height="96" viewbox="0 0 96 96"><rect x="0" y="0" width="96" height="96" fill="#00000000"></rect><g transform="translate(35.352000000000004, 59.99999999999999)"><path d="M2.64 5.42L2.64 5.42Q2.64 4.37 3.31 3.72 3.98 3.07 4.94 3.07 5.9 3.07 6.58 3.74 7.25 4.42 7.25 5.38L7.25 5.38Q7.25 6.24 6.72 6.86 6.19 7.49 5.38 7.63L5.38 7.63 5.09 7.73Q5.09 7.82 5.3 8.06 5.52 8.3 5.66 8.35L5.66 8.35Q6.29 8.83 7.01 8.45L7.01 8.45Q7.68 8.16 8.16 7.01L8.16 7.01Q8.88 5.38 9.7-3.02L9.7-3.02Q10.32-9.46 11.14-14.88L11.14-14.88Q12.29-22.66 13.3-27.22L13.3-27.22Q14.64-33.6 18.14-34.32L18.14-34.32Q18.38-34.37 18.82-34.37L18.82-34.37Q20.93-34.37 22.03-32.21L22.03-32.21Q22.66-30.82 22.66-29.42L22.66-29.42Q22.66-28.37 21.98-27.72 21.31-27.07 20.35-27.07 19.39-27.07 18.72-27.74 18.05-28.42 18.05-29.38L18.05-29.38Q18.05-30.24 18.58-30.86 19.1-31.49 19.92-31.63L19.92-31.63 20.21-31.73Q20.21-31.82 19.99-32.06 19.78-32.3 19.63-32.35L19.63-32.35Q19.01-32.83 18.24-32.4L18.24-32.4Q17.38-31.97 16.85-29.9L16.85-29.9Q16.42-28.27 15.65-21.02L15.65-21.02Q14.5-8.88 12.14 2.74L12.14 2.74Q11.28 7.06 9.65 8.93L9.65 8.93Q8.35 10.22 6.62 10.37L6.62 10.37Q4.75 10.37 3.7 8.93 2.64 7.49 2.64 5.42Z" fill="#404040"></path></g></svg>